<?xml version="1.0" encoding="UTF-8" standalone="no"?>
<!-- Created with Inkscape (http://www.inkscape.org/) -->

<svg
   version="1.1"
   id="svg1"
   width="720"
   height="501.22311"
   viewBox="0 0 720.00002 501.22311"
   sodipodi:docname="logo-civico.svg"
   inkscape:version="1.4 (86a8ad7, 2024-10-11)"
   xmlns:inkscape="http://www.inkscape.org/namespaces/inkscape"
   xmlns:sodipodi="http://sodipodi.sourceforge.net/DTD/sodipodi-0.dtd"
   xmlns="http://www.w3.org/2000/svg"
   xmlns:svg="http://www.w3.org/2000/svg">
  <defs
     id="defs1" />
  <sodipodi:namedview
     id="namedview1"
     pagecolor="#ffffff"
     bordercolor="#000000"
     borderopacity="0.25"
     inkscape:showpageshadow="2"
     inkscape:pageopacity="0.0"
     inkscape:pagecheckerboard="0"
     inkscape:deskcolor="#d1d1d1"
     inkscape:zoom="0.35355339"
     inkscape:cx="879.64084"
     inkscape:cy="535.98694"
     inkscape:window-width="1920"
     inkscape:window-height="991"
     inkscape:window-x="1691"
     inkscape:window-y="-9"
     inkscape:window-maximized="1"
     inkscape:current-layer="g1" />
  <g
     inkscape:groupmode="layer"
     inkscape:label="Image"
     id="g1"
     transform="translate(-30.582797,-271.55696)">
    <g
       id="g18"
       transform="matrix(0.4273417,0,0,0.4273417,-868.29094,31.413591)">
      <path
         style="fill:#f3f114"
         d="m 2105.4432,1304.5292 c 7.2725,-7.0412 840.6266,-742.51012 841.1241,-742.32619 0.3629,0.13417 189.1174,166.74395 419.4544,370.24395 230.3369,203.50004 419.715,370.77254 420.8401,371.71674 1.9345,1.6234 -9.2147,1.7185 -205.049,1.75 l -207.0947,0.033 -0.6789,-15.75 c -1.8308,-42.4794 -8.7347,-80.5951 -21.5996,-119.25 -58.1146,-174.61643 -221.8545,-292.88499 -405.6369,-292.98972 -135.3761,-0.0771 -262.5676,63.67339 -343.4803,172.15822 -52.1017,69.856 -81.3833,152.4451 -84.5881,238.5815 l -0.6418,17.25 h -207.0568 c -178.732,0 -206.8565,-0.194 -205.5925,-1.4178 z"
         id="path18"
         inkscape:label="path4" />
      <path
         style="fill:#5ac131"
         d="m 2103.4075,933.44696 v -371.5 h 420.7333 420.7334 l -3.4834,3.38293 c -5.4041,5.24834 -836.9675,739.61711 -837.5064,739.61711 -0.2623,0 -0.4769,-167.175 -0.4769,-371.50004 z m 1264.4245,0.10876 -420.0756,-371.10876 419.991,-0.25118 c 230.9951,-0.13815 420.1422,-0.10005 420.3269,0.0847 0.1847,0.18471 0.2228,167.29669 0.084,371.35994 l -0.2508,371.02408 z m 5.8277,363.89128 c 0.011,-2.2 0.2159,-2.9823 0.4551,-1.7384 0.2392,1.2439 0.2301,3.0439 -0.02,4 -0.2503,0.9561 -0.446,-0.062 -0.4349,-2.2616 z m -855.1733,-8.0834 c 0.048,-1.1649 0.285,-1.4019 0.6042,-0.6041 0.2889,0.7218 0.2534,1.5843 -0.079,1.9166 -0.3323,0.3323 -0.5686,-0.2583 -0.5252,-1.3125 z m 124.9211,-285.9166 c 1.2917,-1.375 2.5736,-2.5 2.8486,-2.5 0.275,0 -0.5569,1.125 -1.8486,2.5 -1.2917,1.375 -2.5736,2.5 -2.8486,2.5 -0.275,0 0.5569,-1.125 1.8486,-2.5 z m 292.269,-125.19303 c 0.973,-0.25354 2.323,-0.23687 3,0.0371 0.6771,0.27393 -0.119,0.48137 -1.769,0.46099 -1.65,-0.0204 -2.2039,-0.2445 -1.231,-0.49804 z m 18,0 c 0.973,-0.25354 2.323,-0.23687 3,0.0371 0.6771,0.27393 -0.119,0.48137 -1.769,0.46099 -1.65,-0.0204 -2.2039,-0.2445 -1.231,-0.49804 z"
         id="path16"
         inkscape:label="path3" />
      <path
         style="fill:#254b93"
         d="m 2518.422,1303.197 c 0.01,-1.5125 0.4674,-10.5685 1.0209,-20.1245 5.4277,-93.7067 38.456,-177.9076 98.3736,-250.789 12.2978,-14.9586 43.5335,-45.8149 58.591,-57.87926 73.6707,-59.02654 160.7642,-92.06438 251.25,-95.3085 89.7898,-3.21918 171.0555,18.15861 245.75,64.64716 42.0287,26.1579 83.3841,64.1165 114.2302,104.8477 51.9753,68.6318 82.8137,154.7134 85.4797,238.6064 l 0.5959,18.75 h -427.6529 -427.6529 z"
         id="path15"
         inkscape:label="path2" />
      <path
         style="fill:#ffffff"
         d="m 2286.9075,1733.9401 c -49.6804,-3.8173 -86.0929,-16.9262 -114.5164,-41.2273 -28.8808,-24.6921 -46.1624,-60.7194 -53.1323,-110.7658 -2.0636,-14.8168 -1.7641,-63.3489 0.4843,-78.5 6.612,-44.5556 20.7498,-75.7009 45.6254,-100.5114 20.6417,-20.5878 46.5546,-34.3295 79.1621,-41.9801 38.9434,-9.1372 95.0098,-8.5168 129.4376,1.4324 17.1754,4.9634 32.7283,11.5662 44.1337,18.7363 43.3007,27.2213 63.8334,64.841 66.627,122.0728 l 0.3782,7.75 h -56.2018 -56.2018 l -0.5843,-8.75 c -1.1198,-16.7693 -7.9148,-32.4818 -18.7037,-43.25 -12.171,-12.1476 -24.3465,-16.452 -46.508,-16.4422 -11.6064,0.01 -15.4076,0.4034 -22.2332,2.3293 -19.1742,5.4099 -32.9162,18.6121 -40.1328,38.5563 -5.8265,16.1021 -6.5365,22.5218 -6.5877,59.5566 -0.051,37.0114 0.8741,45.7204 6.5081,61.2605 7.7343,21.3333 20.8761,33.9821 41.4807,39.925 10.8227,3.1215 32.8875,3.0921 44.7654,-0.06 25.1542,-6.6745 40.4225,-24.1524 44.6626,-51.1258 0.562,-3.575 1.0252,-8.219 1.0294,-10.3199 l 0.01,-3.8199 54.25,0.7018 c 29.8375,0.386 54.2968,0.7549 54.354,0.8199 0.5416,0.6155 -1.7715,27.2035 -2.9705,34.1449 -11.8594,68.6522 -61.6753,109.9964 -142.6335,118.3771 -14.4786,1.4988 -40.219,2.0328 -52.5,1.0892 z m 980.5,-0.073 c -36.7982,-2.3168 -69.4739,-13.5974 -92.5305,-31.9441 -29.2303,-23.2592 -44.247,-54.9297 -47.404,-99.9757 -2.2425,-31.9975 2.3058,-61.7479 13.139,-85.9426 16.6547,-37.1963 51.4954,-62.5597 98.7955,-71.9211 17.8776,-3.5383 30.8188,-4.4411 54.5,-3.8018 37.1603,1.0031 61.1291,6.4065 87.7155,19.7739 21.8599,10.9909 35.9135,23.9412 46.5684,42.9125 6.5159,11.6017 11.6911,32.2535 12.4618,49.7291 l 0.3197,7.25 h -51.1494 -51.1494 l -1.0708,-8.2956 c -1.5434,-11.9561 -4.3884,-18.7183 -10.7794,-25.6213 -9.2482,-9.9892 -20.9066,-14.0433 -40.4563,-14.0683 -18.369,-0.024 -28.4813,3.4137 -38.0399,12.9301 -6.4985,6.4698 -11.1048,15.346 -13.5785,26.1652 -2.4527,10.728 -2.4825,60.9515 -0.043,71.8899 6.1877,27.7398 26.1232,41.4552 57.6828,39.6853 28.3403,-1.5895 43.7541,-12.7781 48.5056,-35.2095 0.8127,-3.8367 1.4855,-8.4383 1.495,-10.2258 l 0.018,-3.2503 h 49.2974 49.2974 l -0.3393,6.75 c -2.2235,44.2401 -21.421,74.6968 -59.0166,93.6297 -22.7308,11.447 -46.7955,17.4313 -78.7389,19.5802 -16.4286,1.1053 -17.3236,1.1043 -35.5,-0.04 z m 335.8317,-0.02 c -51.0856,-3.2661 -91.3183,-22.3871 -115.1114,-54.7078 -5.449,-7.4019 -12.6121,-21.2113 -16.1742,-31.1813 -10.4328,-29.2007 -12.4459,-69.9553 -5.113,-103.5107 5.3962,-24.6933 15.4211,-44.0975 31.3269,-60.6362 20.6411,-21.4624 46.9496,-34.4367 83.24,-41.0506 11.0269,-2.0096 15.6819,-2.2762 39.5,-2.2622 28.8186,0.017 36.6256,0.8357 56.5146,5.9262 12.5036,3.2002 21.2983,6.5696 33.4854,12.8287 10.751,5.5216 26.4463,16.8275 33.1178,23.856 11.4377,12.0497 23.1199,31.8228 28.2634,47.8381 6.3793,19.8636 9.1675,47.3944 7.2616,71.7016 -2.9588,37.7346 -13.9392,65.3862 -34.6067,87.1483 -20.2693,21.343 -49.1043,35.6087 -84.0361,41.5758 -8.1346,1.3895 -38.0717,3.7745 -43,3.4256 -1.1,-0.078 -7.7007,-0.506 -14.6683,-0.9515 z m 31.8125,-72.396 c 19.834,-3.7949 32.0777,-16.1208 37.0469,-37.2957 2.6718,-11.385 2.6648,-62.0598 -0.01,-73.4617 -5.0178,-21.3884 -16.9169,-33.6012 -36.9175,-37.8905 -6.9163,-1.4833 -28.0374,-0.5461 -34.5002,1.5308 -8.213,2.6394 -17.0887,9.296 -21.8292,16.3717 -8.8389,13.193 -10.8501,25.5861 -10.1566,62.5854 0.5385,28.7273 1.3357,33.9849 6.7915,44.793 9.9666,19.7437 32.4407,28.5586 59.5752,23.367 z M 2524.4075,1586.947 v -141 h 53 53 v 141 141 h -53 -53 z m 174.5902,1.2582 c -29.0854,-76.867 -53.0899,-140.3207 -53.3434,-141.0082 -0.3652,-0.9908 11.3665,-1.25 56.571,-1.25 h 57.0318 l 1.5304,5.25 c 0.8418,2.8875 12.4631,42.4803 25.8252,87.984 22.6939,77.2823 24.4404,82.7351 26.5047,82.75 1.696,0.012 2.4668,-0.856 3.3149,-3.734 0.6077,-2.0625 12.23,-41.55 25.8272,-87.75 l 24.7223,-84 52.2128,-0.2589 c 28.7171,-0.1424 52.2055,-0.1424 52.1965,0 -0.01,0.1424 -24.2196,63.4839 -53.8011,140.7589 l -53.7847,140.5 -55.9626,0.2582 -55.9625,0.2582 z m 287.4098,-1.2582 v -141 h 53 53 v 141 141 h -53 -53 z m 0,-210.5 v -35.5 h 53 53 v 35.5 35.5 h -53 -53 z m -453.3105,24.7058 c 3.7458,-5.3868 14.6855,-21.116 24.3105,-34.9539 l 17.5,-25.1597 51.8333,-0.046 c 41.0362,-0.036 51.7475,0.2143 51.4212,1.2039 -0.2267,0.6875 -19.0517,16.4127 -41.8334,34.945 l -41.4211,33.6949 -34.3105,0.055 -34.3105,0.055 z"
         id="path12"
         inkscape:label="path1" />
    </g>
  </g>
</svg>
